<?xml version="1.0" encoding="UTF-8" standalone="no"?>
<svg
   xmlns:dc="http://purl.org/dc/elements/1.1/"
   xmlns:cc="http://creativecommons.org/ns#"
   xmlns:rdf="http://www.w3.org/1999/02/22-rdf-syntax-ns#"
   xmlns:svg="http://www.w3.org/2000/svg"
   xmlns="http://www.w3.org/2000/svg"
   xmlns:sodipodi="http://sodipodi.sourceforge.net/DTD/sodipodi-0.dtd"
   xmlns:inkscape="http://www.inkscape.org/namespaces/inkscape"
   width="370.5314mm"
   height="156.22746mm"
   viewBox="0 0 370.5314 156.22746"
   version="1.1"
   id="svg1159"
   inkscape:version="1.0 (b51213c273, 2020-08-10)"
   sodipodi:docname="switch-plate.svg">
  <defs
     id="defs1153">
    <inkscape:path-effect
       effect="fillet_chamfer"
       id="path-effect11439"
       is_visible="true"
       lpeversion="1"
       satellites_param="C,0,0,1,0,1,0,1 @ C,0,0,1,0,1,0,1 @ C,0,0,1,0,1,0,1 @ C,0,0,1,0,1,0,1"
       unit="mm"
       method="auto"
       mode="F"
       radius="1"
       chamfer_steps="1"
       flexible="false"
       use_knot_distance="true"
       apply_no_radius="true"
       apply_with_radius="true"
       only_selected="false"
       hide_knots="false" />
    <inkscape:path-effect
       effect="fillet_chamfer"
       id="path-effect10226"
       is_visible="true"
       lpeversion="1"
       satellites_param="C,0,0,1,0,4,0,1 @ C,0,0,1,0,4,0,1 @ C,0,0,1,0,4,0,1 @ C,0,0,1,0,4,0,1"
       unit="mm"
       method="auto"
       mode="C"
       radius="4"
       chamfer_steps="1"
       flexible="false"
       use_knot_distance="true"
       apply_no_radius="true"
       apply_with_radius="true"
       only_selected="false"
       hide_knots="false" />
  </defs>
  <sodipodi:namedview
     id="base"
     pagecolor="#ffffff"
     bordercolor="#666666"
     borderopacity="1.0"
     inkscape:pageopacity="0.0"
     inkscape:pageshadow="2"
     inkscape:zoom="0.7"
     inkscape:cx="461.5748"
     inkscape:cy="113.29596"
     inkscape:document-units="mm"
     inkscape:current-layer="layer1"
     inkscape:document-rotation="0"
     showgrid="false"
     fit-margin-top="10"
     lock-margins="true"
     fit-margin-left="10"
     fit-margin-right="10"
     fit-margin-bottom="10"
     inkscape:window-width="1428"
     inkscape:window-height="1016"
     inkscape:window-x="106"
     inkscape:window-y="27"
     inkscape:window-maximized="0" />
  <metadata
     id="metadata1156">
    <rdf:RDF>
      <cc:Work
         rdf:about="">
        <dc:format>image/svg+xml</dc:format>
        <dc:type
           rdf:resource="http://purl.org/dc/dcmitype/StillImage" />
        <dc:title />
      </cc:Work>
    </rdf:RDF>
  </metadata>
  <g
     inkscape:label="Layer 1"
     inkscape:groupmode="layer"
     id="layer1"
     transform="translate(79.432361,-70.052929)">
    <path
       id="rect8852-2-7"
       d="m -65.432365,80.052902 342.366395,0 4,4 0,128.062468 -4,4 H -65.432365 l -4,-4 V 84.052902 Z"
       style="display:inline;fill:none;stroke:#000000;stroke-width:0.165;stroke-miterlimit:4;stroke-dasharray:none" />
    <path
       id="path4780-0-3-9-8-0"
       style="display:inline;fill:none;stroke:#000000;stroke-width:0.189;stroke-miterlimit:4;stroke-dasharray:none"
       d="m -43.610167,104.08265 -0.812379,-1.3e-4 2.59e-4,0.98045 h -13.970231 l -2.6e-4,-0.98034 -0.81235,-1.4e-4 2.1e-4,-3.5001 0.81236,3e-5 1.9e-4,-5.008938 -0.81334,1.4e-4 2.4e-4,-3.50012 0.81333,-1.3e-4 -2.6e-4,-0.98035 13.970221,-1.1e-4 -7.14e-4,0.98063 0.81333,-1.4e-4 -2.1e-4,3.50011 -0.81333,1.4e-4 7.93e-4,5.008768 0.81234,4e-5 z"
       sodipodi:nodetypes="ccccccccccccccccccccc" />
    <path
       id="path4780-0-3-9-8-0-5"
       style="display:inline;fill:none;stroke:#000000;stroke-width:0.189;stroke-miterlimit:4;stroke-dasharray:none"
       d="m -15.03592,104.08264 -0.812379,-1.3e-4 2.59e-4,0.98045 h -13.97023 l -2.6e-4,-0.98034 -0.81235,-1.4e-4 2.09e-4,-3.5001 0.812361,3e-5 1.91e-4,-5.008938 -0.81334,1.4e-4 2.38e-4,-3.50012 0.813332,-1.3e-4 -2.62e-4,-0.98035 13.970222,-1.1e-4 -7.94e-4,0.98063 0.813329,-1.4e-4 -2.09e-4,3.50011 -0.813331,1.4e-4 7.93e-4,5.008768 0.81234,4e-5 z"
       sodipodi:nodetypes="ccccccccccccccccccccc" />
    <path
       id="path4780-0-3-9-8-0-8"
       style="display:inline;fill:none;stroke:#000000;stroke-width:0.189;stroke-miterlimit:4;stroke-dasharray:none"
       d="m 4.0135826,104.08264 -0.8123793,-1.3e-4 2.593e-4,0.98045 H -10.768768 l -2.59e-4,-0.98034 -0.81235,-1.4e-4 2.09e-4,-3.5001 0.812361,3e-5 1.9e-4,-5.008936 -0.813342,1.4e-4 2.4e-4,-3.50012 0.813332,-1.3e-4 -2.62e-4,-0.98035 13.9702227,-1.1e-4 -7.937e-4,0.98063 0.8133291,-1.4e-4 -2.09e-4,3.50011 -0.8133318,1.4e-4 7.938e-4,5.008766 0.8123396,4e-5 z"
       sodipodi:nodetypes="ccccccccccccccccccccc" />
    <path
       id="path4780-0-3-9-8-0-5-1"
       style="display:inline;fill:none;stroke:#000000;stroke-width:0.189;stroke-miterlimit:4;stroke-dasharray:none"
       d="m 23.06309,104.08264 -0.812384,-1.3e-4 2.59e-4,0.98045 H 8.2807323 l -2.592e-4,-0.98034 -0.8123503,-1.4e-4 2.117e-4,-3.5001 0.8123582,3e-5 1.905e-4,-5.008938 -0.8133398,1.4e-4 2.408e-4,-3.50012 0.8133291,-1.3e-4 -2.592e-4,-0.98035 13.9702199,-1.1e-4 -7.94e-4,0.98063 0.813334,-1.4e-4 -2.09e-4,3.50011 -0.813334,1.4e-4 7.94e-4,5.008768 0.812344,4e-5 z"
       sodipodi:nodetypes="ccccccccccccccccccccc" />
    <path
       id="path4780-0-3-9-8-0-8-1"
       style="display:inline;fill:none;stroke:#000000;stroke-width:0.189;stroke-miterlimit:4;stroke-dasharray:none"
       d="m 42.11259,104.08264 -0.812371,-1.3e-4 2.51e-4,0.98045 H 27.33024 l -2.59e-4,-0.98034 -0.81235,-1.4e-4 2.09e-4,-3.5001 0.81236,3e-5 1.91e-4,-5.008936 -0.813342,1.4e-4 2.4e-4,-3.50012 0.813329,-1.3e-4 -2.59e-4,-0.98035 13.97022,-1.1e-4 -7.94e-4,0.98063 0.813329,-1.4e-4 -2.09e-4,3.50011 -0.813332,1.4e-4 7.94e-4,5.008766 0.81234,4e-5 z"
       sodipodi:nodetypes="ccccccccccccccccccccc" />
    <path
       id="path4780-0-3-9-8-0-5-9"
       style="display:inline;fill:none;stroke:#000000;stroke-width:0.189;stroke-miterlimit:4;stroke-dasharray:none"
       d="m 70.686839,104.08264 -0.812379,-1.3e-4 2.59e-4,0.98045 H 55.904481 l -2.62e-4,-0.98034 -0.812348,-1.4e-4 2.09e-4,-3.5001 0.812361,3e-5 1.88e-4,-5.008938 -0.81334,1.4e-4 2.41e-4,-3.50012 0.813329,-1.31e-4 -2.59e-4,-0.980349 13.97023,-1.1e-4 -7.94e-4,0.98063 0.813329,-1.4e-4 -2.09e-4,3.50011 -0.813329,1.4e-4 7.94e-4,5.008768 0.81234,4e-5 z"
       sodipodi:nodetypes="ccccccccccccccccccccc" />
    <path
       id="path4780-0-3-9-8-0-8-3"
       style="display:inline;fill:none;stroke:#000000;stroke-width:0.189;stroke-miterlimit:4;stroke-dasharray:none"
       d="m 89.736341,104.08264 -0.812381,-1.3e-4 2.61e-4,0.98045 h -13.97023 l -2.62e-4,-0.98034 -0.81235,-1.4e-4 2.12e-4,-3.5001 0.812358,3e-5 1.9e-4,-5.008936 -0.813339,1.4e-4 2.4e-4,-3.50012 0.81333,-1.3e-4 -2.6e-4,-0.98035 13.97022,-1.1e-4 -7.94e-4,0.980629 0.81334,-1.39e-4 -2.2e-4,3.50011 -0.813331,1.4e-4 7.93e-4,5.008766 0.81234,4e-5 z"
       sodipodi:nodetypes="ccccccccccccccccccccc" />
    <path
       id="path4780-0-3-9-8-0-5-2"
       style="display:inline;fill:none;stroke:#000000;stroke-width:0.189;stroke-miterlimit:4;stroke-dasharray:none"
       d="m 137.36023,104.08265 -0.81238,-1.3e-4 2.6e-4,0.98045 h -13.97023 l -2.6e-4,-0.98034 -0.81235,-1.4e-4 2.1e-4,-3.5001 0.81236,3e-5 1.9e-4,-5.008941 -0.81334,1.4e-4 2.4e-4,-3.50012 0.81333,-1.31e-4 -2.6e-4,-0.980349 13.97022,-1.1e-4 -7.9e-4,0.98063 0.81333,-1.4e-4 -2.1e-4,3.50011 -0.81333,1.4e-4 7.9e-4,5.008771 0.81234,4e-5 z"
       sodipodi:nodetypes="ccccccccccccccccccccc" />
    <path
       id="path4780-0-3-9-8-0-8-2"
       style="display:inline;fill:none;stroke:#000000;stroke-width:0.189;stroke-miterlimit:4;stroke-dasharray:none"
       d="m 156.40973,104.08265 -0.81238,-1.3e-4 2.6e-4,0.98045 h -13.97023 l -2.6e-4,-0.98034 -0.81235,-1.4e-4 2.2e-4,-3.5001 0.81235,3e-5 1.9e-4,-5.008939 -0.81334,1.4e-4 2.4e-4,-3.50012 0.81333,-1.3e-4 -2.6e-4,-0.98035 13.97022,-1.1e-4 -7.9e-4,0.980629 0.81333,-1.39e-4 -2.1e-4,3.50011 -0.81333,1.4e-4 8e-4,5.008769 0.81233,4e-5 z"
       sodipodi:nodetypes="ccccccccccccccccccccc" />
    <path
       id="path4780-0-3-9-8-0-5-6"
       style="display:inline;fill:none;stroke:#000000;stroke-width:0.189;stroke-miterlimit:4;stroke-dasharray:none"
       d="m 184.98398,104.08265 -0.81237,-1.3e-4 2.5e-4,0.98045 h -13.97023 l -2.6e-4,-0.98034 -0.81235,-1.4e-4 2.1e-4,-3.5001 0.81236,3e-5 2e-4,-5.008941 -0.81334,1.4e-4 2.3e-4,-3.50012 0.81334,-1.3e-4 -2.7e-4,-0.98035 13.97023,-1.1e-4 -8e-4,0.98063 0.81333,-1.4e-4 -2.1e-4,3.50011 -0.81333,1.4e-4 8e-4,5.008771 0.81234,4e-5 z"
       sodipodi:nodetypes="ccccccccccccccccccccc" />
    <path
       id="path4780-0-3-9-8-0-8-0"
       style="display:inline;fill:none;stroke:#000000;stroke-width:0.189;stroke-miterlimit:4;stroke-dasharray:none"
       d="m 204.03348,104.08265 -0.81237,-1.3e-4 2.6e-4,0.98045 h -13.97024 l -2.6e-4,-0.98034 -0.81235,-1.4e-4 2.1e-4,-3.5001 0.81236,3e-5 1.9e-4,-5.008939 -0.81333,1.4e-4 2.3e-4,-3.50012 0.81334,-1.3e-4 -2.7e-4,-0.98035 13.97023,-1.1e-4 v 0.98063 l 0.81332,-1.4e-4 -2.1e-4,3.50011 -0.81333,1.4e-4 v 5.008769 l 0.81235,4e-5 z"
       sodipodi:nodetypes="ccccccccccccccccccccc" />
    <path
       id="path4780-0-3-9-8-0-5-1-4"
       style="display:inline;fill:none;stroke:#000000;stroke-width:0.189;stroke-miterlimit:4;stroke-dasharray:none"
       d="m 223.08298,104.08265 -0.81238,-1.3e-4 2.7e-4,0.98045 h -13.97024 l -2.7e-4,-0.98034 -0.81235,-1.4e-4 2.2e-4,-3.5001 0.81237,3e-5 1.9e-4,-5.008941 -0.81336,1.4e-4 2.7e-4,-3.50012 0.81333,-1.3e-4 -2.7e-4,-0.98035 13.97021,-1.1e-4 v 0.98063 l 0.81333,-1.4e-4 -2.1e-4,3.50011 -0.81333,1.4e-4 v 5.008771 l 0.81235,4e-5 z"
       sodipodi:nodetypes="ccccccccccccccccccccc" />
    <path
       id="path4780-0-3-9-8-0-8-1-1"
       style="display:inline;fill:none;stroke:#000000;stroke-width:0.189;stroke-miterlimit:4;stroke-dasharray:none"
       d="m 242.13248,104.08265 -0.81235,-1.3e-4 2.3e-4,0.98045 h -13.97023 l -2.4e-4,-0.98034 -0.81235,-1.4e-4 1.8e-4,-3.5001 0.81238,3e-5 1.8e-4,-5.008939 -0.81332,1.4e-4 2.3e-4,-3.50012 0.81333,-1.3e-4 -2.6e-4,-0.98035 13.97021,-1.1e-4 v 0.98063 l 0.81333,-1.4e-4 -2.1e-4,3.50011 -0.81333,1.4e-4 v 5.008769 l 0.81235,4e-5 z"
       sodipodi:nodetypes="ccccccccccccccccccccc" />
    <path
       id="path4780-0-3-9-8-0-8-1-1-8"
       style="display:inline;fill:none;stroke:#000000;stroke-width:0.189;stroke-miterlimit:4;stroke-dasharray:none"
       d="m 270.70671,104.08265 -0.81238,-1.3e-4 2.7e-4,0.98045 h -13.97024 l -2.7e-4,-0.98034 -0.81235,-1.4e-4 2.2e-4,-3.5001 0.81237,3e-5 1.9e-4,-5.008939 -0.81333,1.4e-4 2.4e-4,-3.50012 0.81333,-1.3e-4 -2.7e-4,-0.98035 13.97021,-1.1e-4 v 0.98063 l 0.81333,-1.4e-4 -2.1e-4,3.50011 -0.81333,1.4e-4 v 5.008769 l 0.81235,4e-5 z"
       sodipodi:nodetypes="ccccccccccccccccccccc" />
    <path
       id="path4780-0-3-9-8-0-5-6-7"
       style="display:inline;fill:none;stroke:#000000;stroke-width:0.189;stroke-miterlimit:4;stroke-dasharray:none"
       d="m 75.449209,127.89517 -0.812379,-1.3e-4 2.59e-4,0.98045 h -13.97023 l -2.59e-4,-0.98034 -0.81235,-1.4e-4 2.11e-4,-3.5001 0.812358,3e-5 1.91e-4,-5.00894 -0.81334,1.4e-4 2.41e-4,-3.50012 0.813329,-1.3e-4 -2.59e-4,-0.98035 13.970219,-1.1e-4 -7.93e-4,0.98063 0.813329,-1.4e-4 -2.09e-4,3.50011 -0.813332,1.4e-4 7.94e-4,5.00877 0.812339,4e-5 z"
       sodipodi:nodetypes="ccccccccccccccccccccc" />
    <path
       id="path4780-0-3-9-8-0-8-0-8"
       style="display:inline;fill:none;stroke:#000000;stroke-width:0.189;stroke-miterlimit:4;stroke-dasharray:none"
       d="m 94.498709,127.89517 -0.812379,-1.3e-4 2.59e-4,0.98045 h -13.97023 l -2.59e-4,-0.98034 -0.812351,-1.4e-4 2.12e-4,-3.5001 0.812358,3e-5 1.91e-4,-5.00894 -0.81334,1.4e-4 2.41e-4,-3.50012 0.813329,-1.3e-4 -2.59e-4,-0.98035 13.97023,-1.1e-4 -7.94e-4,0.98063 0.813332,-1.4e-4 -2.12e-4,3.50011 -0.813329,1.4e-4 7.94e-4,5.00877 0.812342,4e-5 z"
       sodipodi:nodetypes="ccccccccccccccccccccc" />
    <path
       id="path4780-0-3-9-8-0-5-1-4-3"
       style="display:inline;fill:none;stroke:#000000;stroke-width:0.189;stroke-miterlimit:4;stroke-dasharray:none"
       d="m 113.54821,127.89517 -0.81238,-1.3e-4 2.6e-4,0.98045 H 98.765862 l -2.62e-4,-0.98034 -0.812351,-1.4e-4 2.12e-4,-3.5001 0.812358,3e-5 1.91e-4,-5.00894 -0.81334,1.4e-4 2.41e-4,-3.50012 0.813329,-1.3e-4 -2.49e-4,-0.98035 13.970219,-1.1e-4 -7.9e-4,0.98063 0.81332,-1.4e-4 -2.1e-4,3.50011 -0.81332,1.4e-4 7.9e-4,5.00877 0.81234,4e-5 z"
       sodipodi:nodetypes="ccccccccccccccccccccc" />
    <path
       id="path4780-0-3-9-8-0-8-1-1-5"
       style="display:inline;fill:none;stroke:#000000;stroke-width:0.189;stroke-miterlimit:4;stroke-dasharray:none"
       d="m 132.59771,127.89517 -0.81236,-1.3e-4 2.4e-4,0.98045 h -13.97023 l -2.6e-4,-0.98034 -0.81235,-1.4e-4 2.1e-4,-3.5001 0.81236,3e-5 1.9e-4,-5.00894 -0.81334,1.4e-4 2.5e-4,-3.50012 0.81332,-1.3e-4 -2.5e-4,-0.98035 13.97021,-1.1e-4 -7.9e-4,0.98063 0.81333,-1.4e-4 -2.1e-4,3.50011 -0.81333,1.4e-4 7.9e-4,5.00877 0.81234,4e-5 z"
       sodipodi:nodetypes="ccccccccccccccccccccc" />
    <path
       id="path4780-0-3-9-8-0-5-6-3"
       style="display:inline;fill:none;stroke:#000000;stroke-width:0.189;stroke-miterlimit:4;stroke-dasharray:none"
       d="m 75.44922,146.94517 -0.812379,-1.3e-4 2.59e-4,0.98045 H 60.66687 l -2.6e-4,-0.98034 -0.81235,-1.4e-4 2.09e-4,-3.5001 0.812361,3e-5 1.9e-4,-5.00894 -0.813339,1.4e-4 2.38e-4,-3.50012 0.813332,-1.3e-4 -2.6e-4,-0.98035 13.97022,-1.1e-4 -7.94e-4,0.98063 0.813332,-1.4e-4 -2.12e-4,3.50011 -0.813329,1.4e-4 7.94e-4,5.00877 0.81234,4e-5 z"
       sodipodi:nodetypes="ccccccccccccccccccccc" />
    <path
       id="path4780-0-3-9-8-0-8-0-7"
       style="display:inline;fill:none;stroke:#000000;stroke-width:0.189;stroke-miterlimit:4;stroke-dasharray:none"
       d="m 94.49872,146.94517 -0.81238,-1.3e-4 2.6e-4,0.98045 H 79.71637 l -2.6e-4,-0.98034 -0.81235,-1.4e-4 2.09e-4,-3.5001 0.812361,3e-5 1.9e-4,-5.00894 -0.813339,1.4e-4 2.4e-4,-3.50012 0.81333,-1.3e-4 -2.6e-4,-0.98035 13.97022,-1.1e-4 -7.94e-4,0.98063 0.813332,-1.4e-4 -2.12e-4,3.50011 -0.813329,1.4e-4 7.94e-4,5.00877 0.812342,4e-5 z"
       sodipodi:nodetypes="ccccccccccccccccccccc" />
    <path
       id="path4780-0-3-9-8-0-5-1-4-6"
       style="display:inline;fill:none;stroke:#000000;stroke-width:0.189;stroke-miterlimit:4;stroke-dasharray:none"
       d="m 113.54822,146.94517 -0.81238,-1.3e-4 2.6e-4,0.98045 H 98.76587 l -2.6e-4,-0.98034 -0.81235,-1.4e-4 2.12e-4,-3.5001 0.812358,3e-5 1.9e-4,-5.00894 -0.813339,1.4e-4 2.4e-4,-3.50012 0.81333,-1.3e-4 -2.6e-4,-0.98035 13.970219,-1.1e-4 -7.9e-4,0.98063 0.81332,-1.4e-4 -2.1e-4,3.50011 -0.81332,1.4e-4 7.9e-4,5.00877 0.81234,4e-5 z"
       sodipodi:nodetypes="ccccccccccccccccccccc" />
    <path
       id="path4780-0-3-9-8-0-8-1-1-9"
       style="display:inline;fill:none;stroke:#000000;stroke-width:0.189;stroke-miterlimit:4;stroke-dasharray:none"
       d="m 132.59772,146.94517 -0.81237,-1.3e-4 2.5e-4,0.98045 h -13.97023 l -2.6e-4,-0.98034 -0.81235,-1.4e-4 2.1e-4,-3.5001 0.81236,3e-5 1.9e-4,-5.00894 -0.81334,1.4e-4 2.4e-4,-3.50012 0.81333,-1.3e-4 -2.6e-4,-0.98035 13.97022,-1.1e-4 -7.9e-4,0.98063 0.81333,-1.4e-4 -2.1e-4,3.50011 -0.81333,1.4e-4 7.9e-4,5.00877 0.81235,4e-5 z"
       sodipodi:nodetypes="ccccccccccccccccccccc" />
    <path
       id="path4780-0-3-9-8-0-8-1-1-5-8"
       style="display:inline;fill:none;stroke:#000000;stroke-width:0.189;stroke-miterlimit:4;stroke-dasharray:none"
       d="m 151.64721,127.89517 -0.81236,-1.3e-4 2.4e-4,0.98045 h -13.97023 l -2.5e-4,-0.98034 -0.81236,-1.4e-4 2.1e-4,-3.5001 0.81236,3e-5 1.9e-4,-5.00894 -0.81334,1.4e-4 2.5e-4,-3.50012 0.81332,-1.3e-4 -2.5e-4,-0.98035 13.97021,-1.1e-4 -7.9e-4,0.98063 0.81333,-1.4e-4 -2.1e-4,3.50011 -0.81333,1.4e-4 7.9e-4,5.00877 0.81234,4e-5 z"
       sodipodi:nodetypes="ccccccccccccccccccccc" />
    <path
       id="path4780-0-3-9-8-0-8-1-1-9-3"
       style="display:inline;fill:none;stroke:#000000;stroke-width:0.189;stroke-miterlimit:4;stroke-dasharray:none"
       d="m 151.64723,146.94517 -0.81238,-1.3e-4 2.6e-4,0.98045 h -13.97023 l -2.7e-4,-0.98034 -0.81235,-1.4e-4 2.1e-4,-3.5001 0.81236,3e-5 1.9e-4,-5.00894 -0.81334,1.4e-4 2.4e-4,-3.50012 0.81333,-1.3e-4 -2.6e-4,-0.98035 13.97022,-1.1e-4 -7.9e-4,0.98063 0.81333,-1.4e-4 -2.1e-4,3.50011 -0.81333,1.4e-4 7.9e-4,5.00877 0.81235,4e-5 z"
       sodipodi:nodetypes="ccccccccccccccccccccc" />
    <path
       id="path4780-0-3-9-8-0-5-6-7-9"
       style="display:inline;fill:none;stroke:#000000;stroke-width:0.189;stroke-miterlimit:4;stroke-dasharray:none"
       d="m 175.45921,127.89508 -0.81237,-1.3e-4 2.5e-4,0.98045 h -13.97023 l -2.5e-4,-0.98034 -0.81236,-1.4e-4 2.1e-4,-3.5001 0.81236,3e-5 2e-4,-5.00894 -0.81335,1.4e-4 2.4e-4,-3.50012 0.81334,-1.3e-4 -2.7e-4,-0.98035 13.97022,-1.1e-4 -7.9e-4,0.98063 0.81333,-1.4e-4 -2.1e-4,3.50011 -0.81333,1.4e-4 7.9e-4,5.00877 0.81234,4e-5 z"
       sodipodi:nodetypes="ccccccccccccccccccccc" />
    <path
       id="path4780-0-3-9-8-0-8-0-8-6"
       style="display:inline;fill:none;stroke:#000000;stroke-width:0.189;stroke-miterlimit:4;stroke-dasharray:none"
       d="m 194.50871,127.89508 -0.81237,-1.3e-4 2.5e-4,0.98045 h -13.97023 l -2.5e-4,-0.98034 -0.81236,-1.4e-4 2.1e-4,-3.5001 0.81236,3e-5 2e-4,-5.00894 -0.81334,1.4e-4 2.3e-4,-3.50012 0.81334,-1.3e-4 -2.7e-4,-0.98035 13.97023,-1.1e-4 -7.9e-4,0.98063 0.81333,-1.4e-4 -2.1e-4,3.50011 -0.81333,1.4e-4 7.9e-4,5.00877 0.81234,4e-5 z"
       sodipodi:nodetypes="ccccccccccccccccccccc" />
    <path
       id="path4780-0-3-9-8-0-5-1-4-3-7"
       style="display:inline;fill:none;stroke:#000000;stroke-width:0.189;stroke-miterlimit:4;stroke-dasharray:none"
       d="m 213.55822,127.89508 -0.81238,-1.3e-4 2.7e-4,0.98045 h -13.97024 l -2.7e-4,-0.98034 -0.81235,-1.4e-4 2.1e-4,-3.5001 0.81235,3e-5 2.2e-4,-5.00894 -0.81336,1.4e-4 2.4e-4,-3.50012 0.81333,-1.3e-4 -2.4e-4,-0.98035 13.97021,-1.1e-4 v 0.98063 l 0.81333,-1.4e-4 -2.1e-4,3.50011 -0.81333,1.4e-4 v 5.00877 l 0.81235,4e-5 z"
       sodipodi:nodetypes="ccccccccccccccccccccc" />
    <path
       id="path4780-0-3-9-8-0-8-1-1-5-4"
       style="display:inline;fill:none;stroke:#000000;stroke-width:0.189;stroke-miterlimit:4;stroke-dasharray:none"
       d="m 232.60771,127.89508 -0.81235,-1.3e-4 2.4e-4,0.98045 h -13.97024 l -2.6e-4,-0.98034 -0.81235,-1.4e-4 2.1e-4,-3.5001 0.81238,3e-5 1.8e-4,-5.00894 -0.81335,1.4e-4 2.6e-4,-3.50012 0.8133,-1.3e-4 -2.3e-4,-0.98035 13.97021,-1.1e-4 v 0.98063 l 0.81333,-1.4e-4 -2.1e-4,3.50011 -0.81333,1.4e-4 v 5.00877 l 0.81235,4e-5 z"
       sodipodi:nodetypes="ccccccccccccccccccccc" />
    <path
       id="path4780-0-3-9-8-0-5-6-3-2"
       style="display:inline;fill:none;stroke:#000000;stroke-width:0.189;stroke-miterlimit:4;stroke-dasharray:none"
       d="m 175.45923,146.94508 -0.81239,-1.3e-4 2.7e-4,0.98045 h -13.97024 l -2.6e-4,-0.98034 -0.81235,-1.4e-4 2.1e-4,-3.5001 0.81237,3e-5 1.8e-4,-5.00894 -0.81334,1.4e-4 2.4e-4,-3.50012 0.81333,-1.3e-4 -2.6e-4,-0.98035 13.97022,-1.1e-4 -7.9e-4,0.98063 0.81333,-1.4e-4 -2.1e-4,3.50011 -0.81333,1.4e-4 7.9e-4,5.00877 0.81234,4e-5 z"
       sodipodi:nodetypes="ccccccccccccccccccccc" />
    <path
       id="path4780-0-3-9-8-0-8-0-7-8"
       style="display:inline;fill:none;stroke:#000000;stroke-width:0.189;stroke-miterlimit:4;stroke-dasharray:none"
       d="m 194.50873,146.94508 -0.81239,-1.3e-4 2.7e-4,0.98045 h -13.97024 l -2.5e-4,-0.98033 -0.81235,-1.4e-4 2e-4,-3.5001 0.81237,3e-5 1.8e-4,-5.00895 -0.81334,1.4e-4 2.4e-4,-3.50012 0.81333,-1.3e-4 -2.6e-4,-0.98035 13.97022,-1.1e-4 -7.9e-4,0.98063 0.81333,-1.4e-4 -2.1e-4,3.50011 -0.81333,1.4e-4 7.9e-4,5.00878 0.81234,4e-5 z"
       sodipodi:nodetypes="ccccccccccccccccccccc" />
    <path
       id="path4780-0-3-9-8-0-5-1-4-6-1"
       style="display:inline;fill:none;stroke:#000000;stroke-width:0.189;stroke-miterlimit:4;stroke-dasharray:none"
       d="m 213.55822,146.94508 -0.81238,-1.3e-4 2.7e-4,0.98045 h -13.97024 l -2.7e-4,-0.98034 -0.81235,-1.4e-4 2.1e-4,-3.5001 0.81238,3e-5 1.9e-4,-5.00894 -0.81333,1.4e-4 2.3e-4,-3.50012 0.81333,-1.3e-4 -2.6e-4,-0.98035 13.97021,-1.1e-4 v 0.98063 l 0.81333,-1.4e-4 -2.1e-4,3.50011 -0.81333,1.4e-4 v 5.00877 l 0.81235,4e-5 z"
       sodipodi:nodetypes="ccccccccccccccccccccc" />
    <path
       id="path4780-0-3-9-8-0-8-1-1-9-9"
       style="display:inline;fill:none;stroke:#000000;stroke-width:0.189;stroke-miterlimit:4;stroke-dasharray:none"
       d="m 232.60771,146.94508 -0.81235,-1.3e-4 2.4e-4,0.98045 h -13.97024 l -2.3e-4,-0.98033 -0.81235,-1.4e-4 2.1e-4,-3.5001 0.81235,3e-5 1.8e-4,-5.00895 -0.81333,1.4e-4 2.4e-4,-3.50012 0.81333,-1.3e-4 -2.6e-4,-0.98035 13.97021,-1.1e-4 v 0.98063 l 0.81333,-1.4e-4 -2.1e-4,3.50011 -0.81333,1.4e-4 v 5.00878 l 0.81235,4e-5 z"
       sodipodi:nodetypes="ccccccccccccccccccccc" />
    <path
       id="path4780-0-3-9-8-0-8-1-1-5-8-0"
       style="display:inline;fill:none;stroke:#000000;stroke-width:0.189;stroke-miterlimit:4;stroke-dasharray:none"
       d="m 251.65721,127.89508 -0.81235,-1.3e-4 2.4e-4,0.98045 h -13.97024 l -2.6e-4,-0.98034 -0.81235,-1.4e-4 2.1e-4,-3.5001 0.81238,3e-5 1.8e-4,-5.00894 -0.81336,1.4e-4 2.7e-4,-3.50012 0.8133,-1.3e-4 -2.4e-4,-0.98035 13.97022,-1.1e-4 v 0.98063 l 0.81332,-1.4e-4 -2.1e-4,3.50011 -0.81333,1.4e-4 v 5.00877 l 0.81235,4e-5 z"
       sodipodi:nodetypes="ccccccccccccccccccccc" />
    <path
       id="path4780-0-3-9-8-0-8-1-1-9-3-1"
       style="display:inline;fill:none;stroke:#000000;stroke-width:0.189;stroke-miterlimit:4;stroke-dasharray:none"
       d="m 251.65724,146.94508 -0.81238,-1.3e-4 2.4e-4,0.98045 h -13.97021 l -2.7e-4,-0.98033 -0.81235,-1.4e-4 2.1e-4,-3.5001 0.81236,3e-5 1.8e-4,-5.00895 -0.81333,1.4e-4 2.4e-4,-3.50012 0.81333,-1.3e-4 -2.7e-4,-0.98035 13.97022,-1.1e-4 v 0.98063 l 0.81332,-1.4e-4 -2.1e-4,3.50011 -0.81333,1.4e-4 v 5.00878 l 0.81235,4e-5 z"
       sodipodi:nodetypes="ccccccccccccccccccccc" />
    <path
       id="path4780-0-3-9-8-0-8-1-1-5-8-0-2"
       style="display:inline;fill:none;stroke:#000000;stroke-width:0.189;stroke-miterlimit:4;stroke-dasharray:none"
       d="m 270.70668,127.89511 -0.81235,-1.3e-4 2.4e-4,0.98045 h -13.97024 l -2.4e-4,-0.98034 -0.81235,-1.4e-4 2.2e-4,-3.5001 0.81235,3e-5 1.8e-4,-5.00894 -0.81333,1.4e-4 2.4e-4,-3.50012 0.81333,-1.3e-4 -2.7e-4,-0.98035 13.97022,-1.1e-4 v 0.98063 l 0.81333,-1.4e-4 -1.9e-4,3.50011 -0.81336,1.4e-4 v 5.00877 l 0.81235,4e-5 z"
       sodipodi:nodetypes="ccccccccccccccccccccc" />
    <path
       id="path4780-0-3-9-8-0-8-1-1-9-3-1-9"
       style="display:inline;fill:none;stroke:#000000;stroke-width:0.189;stroke-miterlimit:4;stroke-dasharray:none"
       d="m 270.70671,146.94512 -0.81238,-1.4e-4 2.7e-4,0.98046 h -13.97024 l -2.7e-4,-0.98035 -0.81235,-1.4e-4 2.2e-4,-3.50009 0.81235,2e-5 2.1e-4,-5.00894 -0.81336,1.4e-4 2.4e-4,-3.50012 0.81333,-1.3e-4 -2.7e-4,-0.98035 13.97024,-1.1e-4 v 0.98063 l 0.81333,-1.4e-4 -2.1e-4,3.50011 -0.81333,1.4e-4 v 5.00877 l 0.81235,4e-5 z"
       sodipodi:nodetypes="ccccccccccccccccccccc" />
    <path
       id="path4780-0-3-9-8-0-5-6-7-9-6"
       style="display:inline;fill:none;stroke:#000000;stroke-width:0.189;stroke-miterlimit:4;stroke-dasharray:none"
       d="m 175.45911,165.9951 -0.81238,-1.3e-4 2.6e-4,0.98045 h -13.97023 l -2.6e-4,-0.98034 -0.81235,-1.4e-4 2.1e-4,-3.5001 0.81236,3e-5 1.9e-4,-5.00894 -0.81334,1.4e-4 2.4e-4,-3.50012 0.81333,-1.3e-4 -2.6e-4,-0.98035 13.97023,-1.1e-4 -8e-4,0.98063 0.81333,-1.4e-4 -2.1e-4,3.50011 -0.81333,1.4e-4 7.9e-4,5.00877 0.81234,4e-5 z"
       sodipodi:nodetypes="ccccccccccccccccccccc" />
    <path
       id="path4780-0-3-9-8-0-8-0-8-6-6"
       style="display:inline;fill:none;stroke:#000000;stroke-width:0.189;stroke-miterlimit:4;stroke-dasharray:none"
       d="m 194.50861,165.99511 -0.81238,-1.3e-4 2.6e-4,0.98044 h -13.97023 l -2.6e-4,-0.98034 -0.81235,-1.4e-4 2.1e-4,-3.5001 0.81236,3e-5 1.9e-4,-5.00894 -0.81334,1.4e-4 2.5e-4,-3.50012 0.81332,-1.3e-4 -2.5e-4,-0.98035 13.97023,-1.1e-4 -8e-4,0.98063 0.81333,-1.4e-4 -2.1e-4,3.50011 -0.81333,1.4e-4 8e-4,5.00877 0.81234,4e-5 z"
       sodipodi:nodetypes="ccccccccccccccccccccc" />
    <path
       id="path4780-0-3-9-8-0-5-1-4-3-7-3"
       style="display:inline;fill:none;stroke:#000000;stroke-width:0.189;stroke-miterlimit:4;stroke-dasharray:none"
       d="m 213.55811,165.9951 -0.81238,-1.3e-4 2.7e-4,0.98045 h -13.97024 l -2.6e-4,-0.98034 -0.81235,-1.4e-4 2.1e-4,-3.5001 0.81237,3e-5 1.9e-4,-5.00894 -0.81336,1.4e-4 2.4e-4,-3.50012 0.81333,-1.3e-4 -2.4e-4,-0.98035 13.97022,-1.1e-4 v 0.98063 l 0.81332,-1.4e-4 -2.1e-4,3.50011 -0.81333,1.4e-4 v 5.00877 l 0.81235,4e-5 z"
       sodipodi:nodetypes="ccccccccccccccccccccc" />
    <path
       id="path4780-0-3-9-8-0-8-1-1-5-4-5"
       style="display:inline;fill:none;stroke:#000000;stroke-width:0.189;stroke-miterlimit:4;stroke-dasharray:none"
       d="m 232.60761,165.99511 -0.81235,-1.3e-4 2.4e-4,0.98044 h -13.97024 l -2.7e-4,-0.98034 -0.81235,-1.4e-4 2.2e-4,-3.5001 0.81237,3e-5 1.9e-4,-5.00894 -0.81333,1.4e-4 2.4e-4,-3.50012 0.81333,-1.3e-4 v -0.98035 l 13.97021,-1.1e-4 v 0.98063 l 0.81333,-1.4e-4 -2.2e-4,3.50011 -0.81332,1.4e-4 v 5.00877 l 0.81232,4e-5 z"
       sodipodi:nodetypes="ccccccccccccccccccccc" />
    <path
       id="path4780-0-3-9-8-0-5-6-3-2-1"
       style="display:inline;fill:none;stroke:#000000;stroke-width:0.189;stroke-miterlimit:4;stroke-dasharray:none"
       d="m 175.45912,185.0451 -0.81237,-1.3e-4 2.5e-4,0.98045 h -13.97023 l -2.5e-4,-0.98034 -0.81236,-1.4e-4 2.1e-4,-3.5001 0.81236,3e-5 2e-4,-5.00894 -0.81335,1.4e-4 2.4e-4,-3.50012 0.81334,-1.3e-4 -2.7e-4,-0.98035 13.97022,-1.1e-4 -7.9e-4,0.98063 0.81333,-1.4e-4 -2.1e-4,3.50011 -0.81333,1.4e-4 7.9e-4,5.00877 0.81234,4e-5 z"
       sodipodi:nodetypes="ccccccccccccccccccccc" />
    <path
       id="path4780-0-3-9-8-0-8-0-7-8-5"
       style="display:inline;fill:none;stroke:#000000;stroke-width:0.189;stroke-miterlimit:4;stroke-dasharray:none"
       d="m 194.50862,185.0451 -0.81237,-1.3e-4 2.5e-4,0.98045 h -13.97023 l -2.5e-4,-0.98034 -0.81236,-1.4e-4 2.1e-4,-3.50009 0.81236,2e-5 2e-4,-5.00894 -0.81334,1.4e-4 2.3e-4,-3.50012 0.81334,-1.3e-4 -2.7e-4,-0.98035 13.97023,-1.1e-4 -8e-4,0.98063 0.81333,-1.4e-4 -2.1e-4,3.50011 -0.81333,1.4e-4 8e-4,5.00877 0.81234,4e-5 z"
       sodipodi:nodetypes="ccccccccccccccccccccc" />
    <path
       id="path4780-0-3-9-8-0-5-1-4-6-1-5"
       style="display:inline;fill:none;stroke:#000000;stroke-width:0.189;stroke-miterlimit:4;stroke-dasharray:none"
       d="m 213.55814,185.0451 -0.81241,-1.3e-4 2.7e-4,0.98045 h -13.97021 l -2.7e-4,-0.98034 -0.81235,-1.4e-4 2.1e-4,-3.5001 0.81235,3e-5 1.9e-4,-5.00894 -0.81333,1.4e-4 2.4e-4,-3.50012 0.81333,-1.3e-4 -2.7e-4,-0.98035 13.97022,-1.1e-4 v 0.98063 l 0.8133,-1.4e-4 -1.9e-4,3.50011 -0.81333,1.4e-4 v 5.00877 l 0.81235,4e-5 z"
       sodipodi:nodetypes="ccccccccccccccccccccc" />
    <path
       id="path4780-0-3-9-8-0-8-1-1-9-9-9"
       style="display:inline;fill:none;stroke:#000000;stroke-width:0.189;stroke-miterlimit:4;stroke-dasharray:none"
       d="m 232.60764,185.0451 -0.81238,-1.3e-4 2.4e-4,0.98045 h -13.97022 l -2.6e-4,-0.98034 -0.81235,-1.4e-4 2.1e-4,-3.50009 0.81235,2e-5 1.9e-4,-5.00894 -0.81333,1.4e-4 2.4e-4,-3.50012 0.81333,-1.3e-4 v -0.98035 l 13.97021,-1.1e-4 v 0.98063 l 0.81333,-1.4e-4 -2.2e-4,3.50011 -0.81332,1.4e-4 v 5.00877 l 0.81237,4e-5 z"
       sodipodi:nodetypes="ccccccccccccccccccccc" />
    <path
       id="path4780-0-3-9-8-0-8-1-1-5-8-0-6"
       style="display:inline;fill:none;stroke:#000000;stroke-width:0.189;stroke-miterlimit:4;stroke-dasharray:none"
       d="m 251.65711,165.99511 -0.81235,-1.3e-4 2.3e-4,0.98044 h -13.97023 l -2.4e-4,-0.98034 -0.81235,-1.4e-4 1.8e-4,-3.5001 0.81238,3e-5 1.8e-4,-5.00894 -0.81332,1.4e-4 2.3e-4,-3.50012 0.81333,-1.3e-4 -2.6e-4,-0.98035 13.97021,-1.1e-4 v 0.98063 l 0.81333,-1.4e-4 -2.1e-4,3.50011 -0.81333,1.4e-4 v 5.00877 l 0.81235,4e-5 z"
       sodipodi:nodetypes="ccccccccccccccccccccc" />
    <path
       id="path4780-0-3-9-8-0-8-1-1-9-3-1-90"
       style="display:inline;fill:none;stroke:#000000;stroke-width:0.189;stroke-miterlimit:4;stroke-dasharray:none"
       d="m 251.65713,185.0451 -0.81237,-1.3e-4 2.3e-4,0.98045 h -13.97021 l -2.6e-4,-0.98034 -0.81235,-1.4e-4 2.1e-4,-3.50009 0.81235,2e-5 1.8e-4,-5.00894 -0.81332,1.4e-4 2.3e-4,-3.50012 0.81333,-1.3e-4 -2.6e-4,-0.98035 13.97024,-1.1e-4 v 0.98063 l 0.81333,-1.4e-4 -2.2e-4,3.50011 -0.81333,1.4e-4 v 5.00877 l 0.81235,4e-5 z"
       sodipodi:nodetypes="ccccccccccccccccccccc" />
    <path
       id="path4780-0-3-9-8-0-8-1-1-5-8-0-2-9"
       style="display:inline;fill:none;stroke:#000000;stroke-width:0.189;stroke-miterlimit:4;stroke-dasharray:none"
       d="m 270.70658,165.99513 -0.81235,-1.3e-4 2.3e-4,0.98045 h -13.97021 l -2.6e-4,-0.98033 -0.81235,-1.4e-4 2.1e-4,-3.50011 0.81235,4e-5 1.9e-4,-5.00895 -0.81333,1.4e-4 2.3e-4,-3.50012 0.81333,-1.3e-4 -2.3e-4,-0.98035 13.97021,-1.1e-4 v 0.98063 l 0.81333,-1.4e-4 -2.2e-4,3.50011 -0.81332,1.4e-4 v 5.00878 l 0.81235,4e-5 z"
       sodipodi:nodetypes="ccccccccccccccccccccc" />
    <path
       id="path4780-0-3-9-8-0-8-1-1-9-3-1-9-6"
       style="display:inline;fill:none;stroke:#000000;stroke-width:0.189;stroke-miterlimit:4;stroke-dasharray:none"
       d="m 270.7066,185.04514 -0.81237,-1.4e-4 2.6e-4,0.98046 h -13.97024 l -2.6e-4,-0.98035 -0.81235,-1.4e-4 2.1e-4,-3.5001 0.81238,3e-5 1.8e-4,-5.00894 -0.81335,1.4e-4 2.3e-4,-3.50012 0.81333,-1.3e-4 -2.3e-4,-0.98035 13.97021,-1.1e-4 v 0.98063 l 0.81333,-1.4e-4 -2.2e-4,3.50011 -0.81332,1.4e-4 v 5.00877 l 0.81235,4e-5 z"
       sodipodi:nodetypes="ccccccccccccccccccccc" />
    <path
       id="path4780-0-3-9-8-0-5-6-3-2-1-8"
       style="display:inline;fill:none;stroke:#000000;stroke-width:0.189;stroke-miterlimit:4;stroke-dasharray:none"
       d="m 175.4591,204.09515 -0.81238,-1.3e-4 2.6e-4,0.98045 h -13.97023 l -2.6e-4,-0.98034 -0.81235,-1.4e-4 2.2e-4,-3.5001 0.81235,3e-5 1.9e-4,-5.00894 -0.81334,1.4e-4 2.5e-4,-3.50012 0.81332,-1.3e-4 -2.6e-4,-0.98035 13.97022,-1.1e-4 -7.9e-4,0.98063 0.81333,-1.4e-4 -2.1e-4,3.50011 -0.81333,1.4e-4 7.9e-4,5.00877 0.81234,4e-5 z"
       sodipodi:nodetypes="ccccccccccccccccccccc" />
    <path
       id="path4780-0-3-9-8-0-8-0-7-8-5-8"
       style="display:inline;fill:none;stroke:#000000;stroke-width:0.189;stroke-miterlimit:4;stroke-dasharray:none"
       d="m 194.5086,204.09515 -0.81238,-1.3e-4 2.6e-4,0.98045 h -13.97023 l -2.6e-4,-0.98034 -0.81235,-1.4e-4 2.2e-4,-3.50009 0.81235,2e-5 1.9e-4,-5.00894 -0.81334,1.4e-4 2.5e-4,-3.50012 0.81332,-1.3e-4 -2.6e-4,-0.98035 13.97022,-1.1e-4 -7.9e-4,0.98063 0.81333,-1.4e-4 -2.1e-4,3.50011 -0.81333,1.4e-4 8e-4,5.00877 0.81234,4e-5 z"
       sodipodi:nodetypes="ccccccccccccccccccccc" />
    <path
       id="path4780-0-3-9-8-0-5-1-4-6-1-5-2"
       style="display:inline;fill:none;stroke:#000000;stroke-width:0.189;stroke-miterlimit:4;stroke-dasharray:none"
       d="m 213.55811,204.09515 -0.81238,-1.3e-4 2.4e-4,0.98045 h -13.97021 l -2.6e-4,-0.98034 -0.81235,-1.4e-4 2.1e-4,-3.5001 0.81235,3e-5 1.8e-4,-5.00894 -0.81333,1.4e-4 2.4e-4,-3.50012 0.81333,-1.3e-4 -2.6e-4,-0.98035 13.97024,-1.1e-4 v 0.98063 l 0.8133,-1.4e-4 -2.1e-4,3.50011 -0.81331,1.4e-4 v 5.00877 l 0.81233,4e-5 z"
       sodipodi:nodetypes="ccccccccccccccccccccc" />
    <path
       id="path4780-0-3-9-8-0-8-1-1-9-9-9-5"
       style="display:inline;fill:none;stroke:#000000;stroke-width:0.189;stroke-miterlimit:4;stroke-dasharray:none"
       d="m 232.60761,204.09515 -0.81238,-1.3e-4 2.7e-4,0.98045 h -13.97024 l -2.7e-4,-0.98034 -0.81235,-1.4e-4 2.2e-4,-3.50009 0.81235,2e-5 2.1e-4,-5.00894 -0.81336,1.4e-4 2.4e-4,-3.50012 0.81333,-1.3e-4 -2.7e-4,-0.98035 13.97024,-1.1e-4 v 0.98063 l 0.81333,-1.4e-4 -2.1e-4,3.50011 -0.81333,1.4e-4 v 5.00877 l 0.81235,4e-5 z"
       sodipodi:nodetypes="ccccccccccccccccccccc" />
    <path
       id="path4780-0-3-9-8-0-8-1-1-9-3-1-90-6"
       style="display:inline;fill:none;stroke:#000000;stroke-width:0.189;stroke-miterlimit:4;stroke-dasharray:none"
       d="m 251.65711,204.09515 -0.81238,-1.3e-4 2.6e-4,0.98045 h -13.97023 l -2.7e-4,-0.98034 -0.81235,-1.4e-4 2.1e-4,-3.50009 0.81235,2e-5 2.1e-4,-5.00894 -0.81335,1.4e-4 2.4e-4,-3.50012 0.81333,-1.3e-4 -2.4e-4,-0.98035 13.97021,-1.1e-4 v 0.98063 l 0.81333,-1.4e-4 -2.1e-4,3.50011 -0.81333,1.4e-4 v 5.00877 l 0.81235,4e-5 z"
       sodipodi:nodetypes="ccccccccccccccccccccc" />
    <path
       id="path4780-0-3-9-8-0-8-1-1-9-3-1-9-6-7"
       style="display:inline;fill:none;stroke:#000000;stroke-width:0.189;stroke-miterlimit:4;stroke-dasharray:none"
       d="m 270.70658,204.09519 -0.81235,-1.4e-4 2.3e-4,0.98046 h -13.97023 l -2.4e-4,-0.98035 -0.81235,-1.4e-4 1.8e-4,-3.5001 0.81238,3e-5 1.9e-4,-5.00894 -0.81333,1.4e-4 2.3e-4,-3.50012 0.81333,-1.3e-4 -2.6e-4,-0.98035 13.97021,-1.1e-4 v 0.98063 l 0.81333,-1.4e-4 -2.1e-4,3.50011 -0.81333,1.4e-4 v 5.00877 l 0.81235,4e-5 z"
       sodipodi:nodetypes="ccccccccccccccccccccc" />
    <path
       id="path4780-0-3-9-8-0-5-6-3-2-1-1"
       style="display:inline;fill:none;stroke:#000000;stroke-width:0.189;stroke-miterlimit:4;stroke-dasharray:none"
       d="m 156.40961,185.0451 -0.81238,-1.3e-4 2.6e-4,0.98045 h -13.97023 l -2.6e-4,-0.98034 -0.81235,-1.4e-4 2.1e-4,-3.5001 0.81236,3e-5 1.9e-4,-5.00894 -0.81334,1.4e-4 2.4e-4,-3.50012 0.81333,-1.3e-4 -2.6e-4,-0.98035 13.97023,-1.1e-4 -8e-4,0.98063 0.81333,-1.4e-4 -2.1e-4,3.50011 -0.81333,1.4e-4 8e-4,5.00877 0.81235,4e-5 z"
       sodipodi:nodetypes="ccccccccccccccccccccc" />
    <path
       id="path4780-0-3-9-8-0-5-6-3-2-1-8-1"
       style="display:inline;fill:none;stroke:#000000;stroke-width:0.189;stroke-miterlimit:4;stroke-dasharray:none"
       d="m 156.40959,204.09515 -0.81238,-1.3e-4 2.6e-4,0.98045 h -13.97023 l -2.6e-4,-0.98034 -0.81235,-1.4e-4 2.1e-4,-3.5001 0.81236,3e-5 1.9e-4,-5.00894 -0.81334,1.4e-4 2.4e-4,-3.50012 0.81333,-1.3e-4 -2.6e-4,-0.98035 13.97022,-1.1e-4 -7.9e-4,0.98063 0.81333,-1.4e-4 -2.1e-4,3.50011 -0.81333,1.4e-4 8e-4,5.00877 0.81233,4e-5 z"
       sodipodi:nodetypes="ccccccccccccccccccccc" />
    <path
       id="path4780-0-3-9-8-0-5-6-7-9-68"
       style="display:inline;fill:none;stroke:#000000;stroke-width:0.189;stroke-miterlimit:4;stroke-dasharray:none"
       d="m -43.610032,127.89509 -0.81238,-1.3e-4 2.6e-4,0.98046 h -13.97023 l -2.6e-4,-0.98034 -0.81235,-1.4e-4 2.1e-4,-3.50011 0.81236,4e-5 1.9e-4,-5.00895 -0.81334,1.4e-4 2.4e-4,-3.50012 0.81333,-1.3e-4 -2.6e-4,-0.98035 13.97022,-1.1e-4 -7.14e-4,0.98063 0.81333,-1.4e-4 -2.11e-4,3.50011 -0.81333,1.4e-4 7.94e-4,5.00878 0.81234,4e-5 z"
       sodipodi:nodetypes="ccccccccccccccccccccc" />
    <path
       id="path4780-0-3-9-8-0-8-0-8-6-8"
       style="display:inline;fill:none;stroke:#000000;stroke-width:0.189;stroke-miterlimit:4;stroke-dasharray:none"
       d="m -24.560531,127.8951 -0.812382,-1.3e-4 2.62e-4,0.98045 h -13.97023 l -2.62e-4,-0.98034 -0.812348,-1.4e-4 2.09e-4,-3.5001 0.812361,3e-5 1.88e-4,-5.00894 -0.81334,1.4e-4 2.41e-4,-3.50012 0.813329,-1.3e-4 -2.59e-4,-0.98035 13.97023,-1.2e-4 -7.94e-4,0.98064 0.813329,-1.5e-4 -2.09e-4,3.50011 -0.813332,1.4e-4 7.94e-4,5.00878 0.81234,4e-5 z"
       sodipodi:nodetypes="ccccccccccccccccccccc" />
    <path
       id="path4780-0-3-9-8-0-5-1-4-3-7-6"
       style="display:inline;fill:none;stroke:#000000;stroke-width:0.189;stroke-miterlimit:4;stroke-dasharray:none"
       d="m -5.5110309,127.89509 -0.81238,-1.3e-4 2.6e-4,0.98046 H -20.293381 l -2.6e-4,-0.98034 -0.81235,-1.4e-4 2.09e-4,-3.50011 0.812361,4e-5 1.9e-4,-5.00895 -0.813342,1.4e-4 2.41e-4,-3.50012 0.813329,-1.3e-4 -2.49e-4,-0.98035 13.9702201,-1.1e-4 -7.94e-4,0.98063 0.813319,-1.4e-4 -2.09e-4,3.50011 -0.813322,1.4e-4 7.94e-4,5.00878 0.81234,4e-5 z"
       sodipodi:nodetypes="ccccccccccccccccccccc" />
    <path
       id="path4780-0-3-9-8-0-8-1-1-5-4-6"
       style="display:inline;fill:none;stroke:#000000;stroke-width:0.189;stroke-miterlimit:4;stroke-dasharray:none"
       d="m 13.538469,127.8951 -0.812361,-1.3e-4 2.41e-4,0.98045 H -1.2438809 l -2.6e-4,-0.98034 -0.81235,-1.4e-4 2.09e-4,-3.5001 0.812361,3e-5 1.9e-4,-5.00894 -0.813339,1.4e-4 2.48e-4,-3.50012 0.813322,-1.3e-4 -2.52e-4,-0.98035 13.9702089,-1.2e-4 -7.93e-4,0.98064 0.813339,-1.5e-4 -2.19e-4,3.50011 -0.813319,1.4e-4 7.94e-4,5.00878 0.812339,4e-5 z"
       sodipodi:nodetypes="ccccccccccccccccccccc" />
    <path
       id="path4780-0-3-9-8-0-5-6-3-2-8"
       style="display:inline;fill:none;stroke:#000000;stroke-width:0.189;stroke-miterlimit:4;stroke-dasharray:none"
       d="m -43.610022,146.9451 -0.81238,-1.3e-4 2.6e-4,0.98045 h -13.97023 l -2.6e-4,-0.98034 -0.81235,-1.4e-4 2.1e-4,-3.50011 0.81236,4e-5 1.9e-4,-5.00894 -0.81334,1.4e-4 2.4e-4,-3.50012 0.81333,-1.4e-4 -2.6e-4,-0.98035 13.97022,-1.1e-4 -7.14e-4,0.98064 0.81333,-1.5e-4 -2.1e-4,3.50011 -0.81333,1.4e-4 7.94e-4,5.00878 0.81234,4e-5 z"
       sodipodi:nodetypes="ccccccccccccccccccccc" />
    <path
       id="path4780-0-3-9-8-0-8-0-7-8-9"
       style="display:inline;fill:none;stroke:#000000;stroke-width:0.189;stroke-miterlimit:4;stroke-dasharray:none"
       d="m -24.560523,146.9451 -0.81238,-1.3e-4 2.6e-4,0.98045 h -13.970228 l -2.62e-4,-0.98034 -0.81235,-1.4e-4 2.12e-4,-3.5001 0.812358,3e-5 1.9e-4,-5.00894 -0.813339,1.4e-4 2.4e-4,-3.50012 0.81333,-1.3e-4 -2.6e-4,-0.98035 13.97022,-1.1e-4 -7.94e-4,0.98063 0.813329,-1.4e-4 -2.09e-4,3.50011 -0.813332,1.4e-4 7.94e-4,5.00877 0.81234,4e-5 z"
       sodipodi:nodetypes="ccccccccccccccccccccc" />
    <path
       id="path4780-0-3-9-8-0-5-1-4-6-1-6"
       style="display:inline;fill:none;stroke:#000000;stroke-width:0.189;stroke-miterlimit:4;stroke-dasharray:none"
       d="m -5.5110209,146.9451 -0.812382,-1.3e-4 2.62e-4,0.98045 H -20.293371 l -2.62e-4,-0.98034 -0.81235,-1.4e-4 2.12e-4,-3.50011 0.812358,4e-5 1.9e-4,-5.00894 -0.813339,1.4e-4 2.4e-4,-3.50012 0.81333,-1.4e-4 -2.6e-4,-0.98035 13.9702201,-1.1e-4 -7.94e-4,0.98064 0.813311,-1.5e-4 -2.01e-4,3.50011 -0.813322,1.4e-4 7.94e-4,5.00878 0.81234,4e-5 z"
       sodipodi:nodetypes="ccccccccccccccccccccc" />
    <path
       id="path4780-0-3-9-8-0-8-1-1-9-9-5"
       style="display:inline;fill:none;stroke:#000000;stroke-width:0.189;stroke-miterlimit:4;stroke-dasharray:none"
       d="m 13.538479,146.9451 -0.812371,-1.3e-4 2.51e-4,0.98045 H -1.2438709 l -2.62e-4,-0.98034 -0.812347,-1.4e-4 2.09e-4,-3.5001 0.81236,3e-5 1.88e-4,-5.00894 -0.813339,1.4e-4 2.4e-4,-3.50012 0.813329,-1.3e-4 -2.59e-4,-0.98035 13.9702199,-1.1e-4 -7.94e-4,0.98063 0.813319,-1.4e-4 -1.99e-4,3.50011 -0.813332,1.4e-4 7.94e-4,5.00877 0.81235,4e-5 z"
       sodipodi:nodetypes="ccccccccccccccccccccc" />
    <path
       id="path4780-0-3-9-8-0-8-1-1-5-8-0-63"
       style="display:inline;fill:none;stroke:#000000;stroke-width:0.189;stroke-miterlimit:4;stroke-dasharray:none"
       d="m 32.587969,127.8951 -0.812358,-1.3e-4 2.38e-4,0.98045 h -13.97023 l -2.6e-4,-0.98034 -0.81235,-1.4e-4 2.09e-4,-3.5001 0.812361,3e-5 1.9e-4,-5.00894 -0.813339,1.4e-4 2.48e-4,-3.50012 0.813322,-1.4e-4 -2.52e-4,-0.98035 13.970212,-1.1e-4 -7.94e-4,0.98064 0.813329,-1.5e-4 -2.09e-4,3.50011 -0.813342,1.4e-4 7.94e-4,5.00878 0.812339,4e-5 z"
       sodipodi:nodetypes="ccccccccccccccccccccc" />
    <path
       id="path4780-0-3-9-8-0-8-1-1-9-3-1-2"
       style="display:inline;fill:none;stroke:#000000;stroke-width:0.189;stroke-miterlimit:4;stroke-dasharray:none"
       d="m 32.587979,146.9451 -0.812368,-1.3e-4 2.48e-4,0.98045 h -13.97023 l -2.59e-4,-0.98034 -0.81235,-1.4e-4 2.09e-4,-3.5001 0.81236,3e-5 1.91e-4,-5.00894 -0.813342,1.4e-4 2.4e-4,-3.50012 0.813329,-1.3e-4 -2.59e-4,-0.98035 13.970222,-1.1e-4 -7.93e-4,0.98063 0.813321,-1.4e-4 -2.01e-4,3.50011 -0.813329,1.4e-4 7.93e-4,5.00877 0.812351,4e-5 z"
       sodipodi:nodetypes="ccccccccccccccccccccc" />
    <path
       id="path4780-0-3-9-8-0-8-1-1-5-8-0-2-8"
       style="display:inline;fill:none;stroke:#000000;stroke-width:0.189;stroke-miterlimit:4;stroke-dasharray:none"
       d="m 51.63745,127.89513 -0.812361,-1.3e-4 2.41e-4,0.98045 H 36.8551 l -2.59e-4,-0.98034 -0.812351,-1.4e-4 2.09e-4,-3.5001 0.812361,3e-5 1.91e-4,-5.00895 -0.81334,1.4e-4 2.49e-4,-3.50012 0.813321,-1.3e-4 -2.51e-4,-0.98035 13.970211,-1e-4 -7.94e-4,0.98062 0.813319,-1.4e-4 -1.98e-4,3.50011 -0.81334,1.4e-4 7.94e-4,5.00878 0.812342,4e-5 z"
       sodipodi:nodetypes="ccccccccccccccccccccc" />
    <path
       id="path4780-0-3-9-8-0-8-1-1-9-3-1-9-3"
       style="display:inline;fill:none;stroke:#000000;stroke-width:0.189;stroke-miterlimit:4;stroke-dasharray:none"
       d="m 51.637461,146.94513 -0.812372,-1.3e-4 2.52e-4,0.98045 H 36.85511 l -2.61e-4,-0.98034 -0.812348,-1.4e-4 2.09e-4,-3.5001 0.812361,3e-5 1.88e-4,-5.00894 -0.81334,1.4e-4 2.41e-4,-3.50012 0.813329,-1.3e-4 -2.59e-4,-0.98035 13.970219,-1.1e-4 -7.94e-4,0.98063 0.81333,-1.4e-4 -2.09e-4,3.50011 -0.813332,1.4e-4 7.93e-4,5.00877 0.812351,4e-5 z"
       sodipodi:nodetypes="ccccccccccccccccccccc" />
    <path
       id="path4780-0-3-9-8-0-5-6-7-9-6-6"
       style="display:inline;fill:none;stroke:#000000;stroke-width:0.189;stroke-miterlimit:4;stroke-dasharray:none"
       d="m -43.610132,165.99512 -0.81238,-1.3e-4 2.6e-4,0.98045 h -13.97023 l -2.6e-4,-0.98035 -0.81235,-1.3e-4 2.1e-4,-3.5001 0.81236,2e-5 1.9e-4,-5.00893 -0.81334,1.4e-4 2.4e-4,-3.50012 0.81333,-1.4e-4 -2.6e-4,-0.98035 13.97022,-1e-4 -7.14e-4,0.98062 0.813329,-1.4e-4 -2.1e-4,3.50012 -0.81333,1.4e-4 7.94e-4,5.00876 0.81234,5e-5 z"
       sodipodi:nodetypes="ccccccccccccccccccccc" />
    <path
       id="path4780-0-3-9-8-0-8-0-8-6-6-6"
       style="display:inline;fill:none;stroke:#000000;stroke-width:0.189;stroke-miterlimit:4;stroke-dasharray:none"
       d="m -24.560632,165.99512 -0.812379,-1.3e-4 2.59e-4,0.98045 h -13.97023 l -2.59e-4,-0.98034 -0.81235,-1.4e-4 2.09e-4,-3.5001 0.81236,3e-5 1.91e-4,-5.00894 -0.81334,1.4e-4 2.38e-4,-3.50012 0.813332,-1.3e-4 -2.62e-4,-0.98035 13.97023,-1.1e-4 -7.93e-4,0.98063 0.813339,-1.4e-4 -2.19e-4,3.50011 -0.813321,1.4e-4 7.93e-4,5.00877 0.81234,4e-5 z"
       sodipodi:nodetypes="ccccccccccccccccccccc" />
    <path
       id="path4780-0-3-9-8-0-5-1-4-3-7-3-1"
       style="display:inline;fill:none;stroke:#000000;stroke-width:0.189;stroke-miterlimit:4;stroke-dasharray:none"
       d="m -5.5111319,165.99512 -0.812379,-1.3e-4 2.59e-4,0.98045 H -20.293482 l -2.59e-4,-0.98035 -0.81235,-1.3e-4 2.09e-4,-3.5001 0.81236,2e-5 1.91e-4,-5.00893 -0.81334,1.4e-4 2.38e-4,-3.50012 0.813332,-1.4e-4 -2.51e-4,-0.98035 13.9702191,-1e-4 -7.93e-4,0.98062 0.813329,-1.4e-4 -2.2e-4,3.50012 -0.813311,1.4e-4 7.94e-4,5.00876 0.81234,5e-5 z"
       sodipodi:nodetypes="ccccccccccccccccccccc" />
    <path
       id="path4780-0-3-9-8-0-8-1-1-5-4-5-4"
       style="display:inline;fill:none;stroke:#000000;stroke-width:0.189;stroke-miterlimit:4;stroke-dasharray:none"
       d="m 13.538368,165.99512 -0.812361,-1.3e-4 2.41e-4,0.98045 H -1.2439819 l -2.59e-4,-0.98034 -0.812351,-1.4e-4 2.1e-4,-3.5001 0.81236,3e-5 1.91e-4,-5.00894 -0.81334,1.4e-4 2.49e-4,-3.50012 0.813321,-1.3e-4 -2.51e-4,-0.98035 13.9702109,-1.1e-4 -7.93e-4,0.98063 0.813331,-1.4e-4 -2.11e-4,3.50011 -0.813329,1.4e-4 7.93e-4,5.00877 0.81234,4e-5 z"
       sodipodi:nodetypes="ccccccccccccccccccccc" />
    <path
       id="path4780-0-3-9-8-0-5-6-3-2-1-9"
       style="display:inline;fill:none;stroke:#000000;stroke-width:0.189;stroke-miterlimit:4;stroke-dasharray:none"
       d="m -43.610122,185.04512 -0.81238,-1.3e-4 2.6e-4,0.98045 h -13.97023 l -2.6e-4,-0.98034 -0.81235,-1.4e-4 2.1e-4,-3.5001 0.81236,3e-5 1.9e-4,-5.00894 -0.81334,1.4e-4 2.4e-4,-3.50012 0.81333,-1.3e-4 -2.6e-4,-0.98035 13.97022,-1.1e-4 -7.14e-4,0.98063 0.81333,-1.4e-4 -2.11e-4,3.50011 -0.813329,1.4e-4 7.93e-4,5.00877 0.81234,4e-5 z"
       sodipodi:nodetypes="ccccccccccccccccccccc" />
    <path
       id="path4780-0-3-9-8-0-8-0-7-8-5-82"
       style="display:inline;fill:none;stroke:#000000;stroke-width:0.189;stroke-miterlimit:4;stroke-dasharray:none"
       d="m -24.560621,185.04512 -0.812382,-1.3e-4 2.62e-4,0.98045 h -13.97023 l -2.62e-4,-0.98034 -0.812348,-1.4e-4 2.09e-4,-3.50009 0.812361,2e-5 1.88e-4,-5.00894 -0.81334,1.4e-4 2.41e-4,-3.50012 0.813329,-1.3e-4 -2.59e-4,-0.98035 13.970219,-1.1e-4 -7.93e-4,0.98063 0.813339,-1.4e-4 -2.19e-4,3.50011 -0.813321,1.4e-4 7.93e-4,5.00877 0.81234,4e-5 z"
       sodipodi:nodetypes="ccccccccccccccccccccc" />
    <path
       id="path4780-0-3-9-8-0-5-1-4-6-1-5-4"
       style="display:inline;fill:none;stroke:#000000;stroke-width:0.189;stroke-miterlimit:4;stroke-dasharray:none"
       d="m -5.5111209,185.04512 -0.812379,-1.3e-4 2.59e-4,0.98045 H -20.293471 l -2.6e-4,-0.98034 -0.81235,-1.4e-4 2.09e-4,-3.5001 0.812361,3e-5 1.9e-4,-5.00894 -0.813342,1.4e-4 2.41e-4,-3.50012 0.813329,-1.3e-4 -2.59e-4,-0.98035 13.9702191,-1.1e-4 -7.93e-4,0.98063 0.813321,-1.4e-4 -2.12e-4,3.50011 -0.813311,1.4e-4 7.94e-4,5.00877 0.81234,4e-5 z"
       sodipodi:nodetypes="ccccccccccccccccccccc" />
    <path
       id="path4780-0-3-9-8-0-8-1-1-9-9-9-3"
       style="display:inline;fill:none;stroke:#000000;stroke-width:0.189;stroke-miterlimit:4;stroke-dasharray:none"
       d="m 13.538379,185.04512 -0.812372,-1.3e-4 2.52e-4,0.98045 H -1.2439709 l -2.6e-4,-0.98034 -0.81235,-1.4e-4 2.09e-4,-3.50009 0.812361,2e-5 1.9e-4,-5.00894 -0.813339,1.4e-4 2.38e-4,-3.50012 0.813332,-1.3e-4 -2.62e-4,-0.98035 13.9702189,-1.1e-4 -7.93e-4,0.98063 0.813339,-1.4e-4 -2.19e-4,3.50011 -0.813319,1.4e-4 7.94e-4,5.00877 0.812361,4e-5 z"
       sodipodi:nodetypes="ccccccccccccccccccccc" />
    <path
       id="path4780-0-3-9-8-0-8-1-1-5-8-0-6-5"
       style="display:inline;fill:none;stroke:#000000;stroke-width:0.189;stroke-miterlimit:4;stroke-dasharray:none"
       d="m 32.587871,165.99512 -0.812361,-1.3e-4 2.41e-4,0.98045 H 17.805518 l -2.59e-4,-0.98034 -0.812351,-1.4e-4 2.1e-4,-3.5001 0.81236,3e-5 1.91e-4,-5.00894 -0.81334,1.4e-4 2.49e-4,-3.50012 0.813321,-1.4e-4 -2.51e-4,-0.98035 13.970211,-1e-4 -7.94e-4,0.98062 0.813319,-1.4e-4 -1.98e-4,3.50012 -0.813332,1.4e-4 7.94e-4,5.00877 0.812339,4e-5 z"
       sodipodi:nodetypes="ccccccccccccccccccccc" />
    <path
       id="path4780-0-3-9-8-0-8-1-1-9-3-1-90-7"
       style="display:inline;fill:none;stroke:#000000;stroke-width:0.189;stroke-miterlimit:4;stroke-dasharray:none"
       d="m 32.587879,185.04512 -0.812369,-1.3e-4 2.49e-4,0.98045 h -13.97023 l -2.6e-4,-0.98034 -0.81235,-1.4e-4 2.09e-4,-3.50009 0.812361,2e-5 1.9e-4,-5.00894 -0.813339,1.4e-4 2.38e-4,-3.50012 0.813332,-1.3e-4 -2.62e-4,-0.98035 13.970222,-1.1e-4 -7.94e-4,0.98063 0.813329,-1.4e-4 -2.09e-4,3.50011 -0.813332,1.4e-4 7.94e-4,5.00877 0.81235,4e-5 z"
       sodipodi:nodetypes="ccccccccccccccccccccc" />
    <path
       id="path4780-0-3-9-8-0-8-1-1-5-8-0-2-9-8"
       style="display:inline;fill:none;stroke:#000000;stroke-width:0.189;stroke-miterlimit:4;stroke-dasharray:none"
       d="m 51.637339,165.99515 -0.81235,-1.3e-4 2.3e-4,0.98045 h -13.97022 l -2.59e-4,-0.98034 -0.81235,-1.4e-4 2.09e-4,-3.5001 0.812361,3e-5 1.9e-4,-5.00894 -0.81334,1.4e-4 2.49e-4,-3.50012 0.813321,-1.3e-4 -2.51e-4,-0.98035 13.970212,-1.1e-4 -7.94e-4,0.98063 0.813321,-1.4e-4 -2.01e-4,3.5001 -0.81334,1.5e-4 7.94e-4,5.00877 0.812348,4e-5 z"
       sodipodi:nodetypes="ccccccccccccccccccccc" />
    <path
       id="path4780-0-3-9-8-0-8-1-1-9-3-1-9-6-2"
       style="display:inline;fill:none;stroke:#000000;stroke-width:0.189;stroke-miterlimit:4;stroke-dasharray:none"
       d="m 51.63736,185.04516 -0.812371,-1.4e-4 2.51e-4,0.98046 H 36.85501 l -2.59e-4,-0.98035 -0.812351,-1.4e-4 2.09e-4,-3.5001 0.812361,3e-5 1.91e-4,-5.00894 -0.81334,1.4e-4 2.38e-4,-3.50012 0.813332,-1.3e-4 -2.62e-4,-0.98035 13.970222,-1.1e-4 -7.94e-4,0.98063 0.81333,-1.4e-4 -2.09e-4,3.50011 -0.81333,1.4e-4 7.94e-4,5.00877 0.81235,4e-5 z"
       sodipodi:nodetypes="ccccccccccccccccccccc" />
    <path
       id="path4780-0-3-9-8-0-5-6-3-2-1-8-5"
       style="display:inline;fill:none;stroke:#000000;stroke-width:0.189;stroke-miterlimit:4;stroke-dasharray:none"
       d="m -43.610142,204.09517 -0.81238,-1.3e-4 2.6e-4,0.98045 h -13.97023 l -2.6e-4,-0.98034 -0.81235,-1.4e-4 2.1e-4,-3.5001 0.81236,3e-5 1.9e-4,-5.00894 -0.81334,1.4e-4 2.4e-4,-3.50012 0.81333,-1.3e-4 -2.6e-4,-0.98035 13.97022,-1.1e-4 -7.15e-4,0.98063 0.81333,-1.4e-4 -2.1e-4,3.50011 -0.81333,1.4e-4 7.94e-4,5.00877 0.81234,4e-5 z"
       sodipodi:nodetypes="ccccccccccccccccccccc" />
    <path
       id="path4780-0-3-9-8-0-8-0-7-8-5-8-3"
       style="display:inline;fill:none;stroke:#000000;stroke-width:0.189;stroke-miterlimit:4;stroke-dasharray:none"
       d="m -24.560642,204.09517 -0.81238,-1.3e-4 2.6e-4,0.98045 h -13.97023 l -2.6e-4,-0.98034 -0.81235,-1.4e-4 2.09e-4,-3.50009 0.812361,2e-5 1.9e-4,-5.00894 -0.813339,1.4e-4 2.38e-4,-3.50012 0.813332,-1.3e-4 -2.6e-4,-0.98035 13.97022,-1.1e-4 -7.94e-4,0.98063 0.81334,-1.4e-4 -2.2e-4,3.50011 -0.813329,1.4e-4 7.94e-4,5.00877 0.812339,4e-5 z"
       sodipodi:nodetypes="ccccccccccccccccccccc" />
    <path
       id="path4780-0-3-9-8-0-5-1-4-6-1-5-2-7"
       style="display:inline;fill:none;stroke:#000000;stroke-width:0.189;stroke-miterlimit:4;stroke-dasharray:none"
       d="m -5.5111419,204.09517 -0.81238,-1.3e-4 2.6e-4,0.98045 H -20.293493 l -2.59e-4,-0.98034 -0.81235,-1.4e-4 2.09e-4,-3.5001 0.812361,3e-5 1.9e-4,-5.00894 -0.813339,1.4e-4 2.4e-4,-3.50012 0.813329,-1.3e-4 -2.59e-4,-0.98035 13.9702201,-1.1e-4 -7.94e-4,0.98063 0.8133,-1.4e-4 -1.88e-4,3.50011 -0.813321,1.4e-4 7.94e-4,5.00877 0.812342,4e-5 z"
       sodipodi:nodetypes="ccccccccccccccccccccc" />
    <path
       id="path4780-0-3-9-8-0-8-1-1-9-9-9-5-8"
       style="display:inline;fill:none;stroke:#000000;stroke-width:0.189;stroke-miterlimit:4;stroke-dasharray:none"
       d="m 13.538358,204.09517 -0.812369,-1.3e-4 2.49e-4,0.98045 H -1.2439929 l -2.59e-4,-0.98034 -0.81235,-1.4e-4 2.12e-4,-3.50009 0.812358,2e-5 1.9e-4,-5.00894 -0.81334,1.4e-4 2.41e-4,-3.50012 0.813329,-1.3e-4 -2.59e-4,-0.98035 13.9702199,-1.1e-4 -7.94e-4,0.98063 0.813329,-1.4e-4 -2.09e-4,3.50011 -0.813332,1.4e-4 7.94e-4,5.00877 0.812358,4e-5 z"
       sodipodi:nodetypes="ccccccccccccccccccccc" />
    <path
       id="path4780-0-3-9-8-0-8-1-1-9-3-1-90-6-7"
       style="display:inline;fill:none;stroke:#000000;stroke-width:0.189;stroke-miterlimit:4;stroke-dasharray:none"
       d="m 32.58786,204.09517 -0.812371,-1.3e-4 2.51e-4,0.98045 H 17.805507 l -2.59e-4,-0.98034 -0.81235,-1.4e-4 2.12e-4,-3.50009 0.812358,2e-5 1.9e-4,-5.00894 -0.81334,1.4e-4 2.41e-4,-3.50012 0.813329,-1.3e-4 -2.59e-4,-0.98035 13.97022,-1.1e-4 -7.94e-4,0.98063 0.813329,-1.4e-4 -2.09e-4,3.50011 -0.813329,1.4e-4 7.94e-4,5.00877 0.81235,4e-5 z"
       sodipodi:nodetypes="ccccccccccccccccccccc" />
    <path
       id="path4780-0-3-9-8-0-8-1-1-9-3-1-9-6-7-2"
       style="display:inline;fill:none;stroke:#000000;stroke-width:0.189;stroke-miterlimit:4;stroke-dasharray:none"
       d="m 51.637339,204.09521 -0.812369,-1.4e-4 2.49e-4,0.98046 h -13.97023 l -2.6e-4,-0.98035 -0.81235,-1.4e-4 2.12e-4,-3.5001 0.812358,3e-5 1.91e-4,-5.00894 -0.81334,1.4e-4 2.41e-4,-3.50012 0.813329,-1.3e-4 -2.6e-4,-0.98035 13.97022,-1.1e-4 -7.94e-4,0.98063 0.81334,-1.4e-4 -2.2e-4,3.50011 -0.813318,1.4e-4 7.94e-4,5.00877 0.81235,4e-5 z"
       sodipodi:nodetypes="ccccccccccccccccccccc" />
    <path
       id="path4780-0-3-9-8-0-8-1-1-9-3-1-9-6-2-1"
       style="display:inline;fill:none;stroke:#000000;stroke-width:0.189;stroke-miterlimit:4;stroke-dasharray:none"
       d="m 70.68686,185.04516 -0.812369,-1.4e-4 2.49e-4,0.98046 H 55.90451 l -2.59e-4,-0.98035 -0.812351,-1.4e-4 2.09e-4,-3.5001 0.812361,3e-5 1.91e-4,-5.00894 -0.81334,1.4e-4 2.38e-4,-3.50012 0.813332,-1.3e-4 -2.62e-4,-0.98035 13.970222,-1.1e-4 -7.94e-4,0.98063 0.813332,-1.4e-4 -2.11e-4,3.50011 -0.81333,1.4e-4 7.94e-4,5.00877 0.81235,4e-5 z"
       sodipodi:nodetypes="ccccccccccccccccccccc" />
    <path
       id="path4780-0-3-9-8-0-8-1-1-9-3-1-9-6-7-2-1"
       style="display:inline;fill:none;stroke:#000000;stroke-width:0.189;stroke-miterlimit:4;stroke-dasharray:none"
       d="m 70.686839,204.09521 -0.812369,-1.4e-4 2.49e-4,0.98046 h -13.97023 l -2.6e-4,-0.98035 -0.81235,-1.4e-4 2.12e-4,-3.5001 0.812358,3e-5 1.91e-4,-5.00894 -0.81334,1.4e-4 2.41e-4,-3.50012 0.813329,-1.3e-4 -2.6e-4,-0.98035 13.97022,-1.1e-4 -7.94e-4,0.98063 0.81334,-1.4e-4 -2.2e-4,3.50011 -0.813321,1.4e-4 7.94e-4,5.00877 0.81235,4e-5 z"
       sodipodi:nodetypes="ccccccccccccccccccccc" />
    <path
       id="path4780-0-3-9-8-0-8-1-1-9-3-1-9-6-2-2"
       style="display:inline;fill:none;stroke:#000000;stroke-width:0.189;stroke-miterlimit:4;stroke-dasharray:none"
       d="m 113.54823,185.04517 -0.81237,-1.4e-4 2.5e-4,0.98046 H 98.76588 l -2.59e-4,-0.98035 -0.81235,-1.4e-4 2.09e-4,-3.5001 0.81236,3e-5 1.91e-4,-5.00894 -0.81334,1.4e-4 2.38e-4,-3.50012 0.813332,-1.3e-4 -2.62e-4,-0.98035 13.970221,-1.1e-4 -7.9e-4,0.98063 0.81333,-1.4e-4 -2.1e-4,3.50011 -0.81333,1.4e-4 8e-4,5.00877 0.81235,4e-5 z"
       sodipodi:nodetypes="ccccccccccccccccccccc" />
    <path
       id="path4780-0-3-9-8-0-8-1-1-9-3-1-9-6-7-2-3"
       style="display:inline;fill:none;stroke:#000000;stroke-width:0.189;stroke-miterlimit:4;stroke-dasharray:none"
       d="m 113.54821,204.09522 -0.81237,-1.4e-4 2.5e-4,0.98046 H 98.765862 l -2.62e-4,-0.98035 -0.812351,-1.4e-4 2.12e-4,-3.5001 0.812358,3e-5 1.91e-4,-5.00894 -0.81334,1.4e-4 2.41e-4,-3.50012 0.813329,-1.3e-4 -2.59e-4,-0.98035 13.970219,-1.1e-4 -7.9e-4,0.98063 0.81334,-1.4e-4 -2.2e-4,3.50011 -0.81332,1.4e-4 7.9e-4,5.00877 0.81235,4e-5 z"
       sodipodi:nodetypes="ccccccccccccccccccccc" />
    <path
       id="path4780-0-3-9-8-0-8-1-1-9-3-1-9-6-7-2-3-0"
       style="display:inline;fill:none;stroke:#000000;stroke-width:0.189;stroke-miterlimit:4;stroke-dasharray:none"
       d="m 94.49873,204.09516 -0.812368,-1.4e-4 2.48e-4,0.98046 H 79.71638 l -2.59e-4,-0.98035 -0.81235,-1.4e-4 2.09e-4,-3.5001 0.81236,3e-5 1.91e-4,-5.00894 -0.81334,1.4e-4 2.38e-4,-3.50012 0.813332,-1.3e-4 -2.62e-4,-0.98035 13.970222,-1.1e-4 -7.93e-4,0.98063 0.813339,-1.4e-4 -2.19e-4,3.50011 -0.813319,1.4e-4 7.94e-4,5.00877 0.81235,4e-5 z"
       sodipodi:nodetypes="ccccccccccccccccccccc" />
    <path
       id="path4780-0-3-9-8-0-8-1-1-9-3-1-9-6-7-2-3-8"
       style="display:inline;fill:none;stroke:#000000;stroke-width:0.189;stroke-miterlimit:4;stroke-dasharray:none"
       d="m 132.59774,204.09517 -0.81236,-1.4e-4 2.4e-4,0.98046 h -13.97023 l -2.6e-4,-0.98035 -0.81235,-1.4e-4 2.1e-4,-3.5001 0.81236,3e-5 1.9e-4,-5.00894 -0.81334,1.4e-4 2.4e-4,-3.50012 0.81333,-1.3e-4 -2.6e-4,-0.98035 13.97022,-1.1e-4 -7.9e-4,0.98063 0.81334,-1.4e-4 -2.2e-4,3.50011 -0.81332,1.4e-4 8e-4,5.00877 0.81235,4e-5 z"
       sodipodi:nodetypes="ccccccccccccccccccccc" />
    <path
       style="display:inline;opacity:0.997;fill:none;stroke:#000000;stroke-width:0.189;stroke-miterlimit:4;stroke-dasharray:none"
       id="rect1099-2-4"
       width="40"
       height="14"
       x="85.750786"
       y="152.99043"
       inkscape:path-effect="#path-effect11439"
       sodipodi:type="rect"
       d="m 86.750786,152.99043 h 38.000004 l 1,1 v 12 l -1,1 H 86.750786 l -1,-1 v -12 z" />
    <circle
       style="display:inline;fill:none;stroke:#000000;stroke-width:0.189;stroke-miterlimit:4;stroke-dasharray:none"
       id="path17688-4-08-5-4-0-9"
       cx="81.676506"
       cy="-159.99043"
       r="1.6"
       transform="scale(1,-1)" />
    <circle
       style="display:inline;fill:none;stroke:#000000;stroke-width:0.189;stroke-miterlimit:4;stroke-dasharray:none"
       id="path17688-4-08-5-4-7-4-9"
       cx="129.825"
       cy="-159.99043"
       r="1.6"
       transform="scale(1,-1)" />
    <circle
       style="display:inline;fill:none;stroke:#000000;stroke-width:0.189;stroke-miterlimit:4;stroke-dasharray:none"
       id="path17688-4-08-5-5-7-1-0-0"
       cx="84.552902"
       cy="-136.70624"
       r="1.6"
       transform="rotate(90)" />
    <circle
       style="display:inline;fill:none;stroke:#000000;stroke-width:0.189;stroke-miterlimit:4;stroke-dasharray:none"
       id="path17688-4-08-5-5-7-1-7"
       cx="75.339828"
       cy="84.552925"
       r="1.6" />
    <circle
       style="display:inline;fill:none;stroke:#000000;stroke-width:0.189;stroke-miterlimit:4;stroke-dasharray:none"
       id="path17688-4-08-5-5-7-1-2-5"
       cx="-136.70627"
       cy="-211.61537"
       r="1.6"
       transform="scale(-1)" />
    <circle
       style="display:inline;fill:none;stroke:#000000;stroke-width:0.189;stroke-miterlimit:4;stroke-dasharray:none"
       id="path17688-4-08-5-5-7-1-6-3"
       cx="-211.61537"
       cy="75.339874"
       r="1.6"
       transform="rotate(-90)" />
    <circle
       style="display:inline;fill:none;stroke:#000000;stroke-width:0.189;stroke-miterlimit:4;stroke-dasharray:none"
       id="path17688-4-08-5-5-7-5-6-1-1"
       cx="105.70209"
       cy="-14.981052"
       r="1.6"
       transform="rotate(135)" />
    <circle
       style="display:inline;fill:none;stroke:#000000;stroke-width:0.189;stroke-miterlimit:4;stroke-dasharray:none"
       id="path17688-4-08-5-5-7-5-6-1-6-78"
       cx="194.44153"
       cy="-103.72057"
       r="1.6"
       transform="rotate(135)" />
    <circle
       style="display:inline;fill:none;stroke:#000000;stroke-width:0.189;stroke-miterlimit:4;stroke-dasharray:none"
       id="path17688-4-08-5-5-7-5-6-1-6-7-0"
       cx="-45.833614"
       cy="-343.99576"
       r="1.6"
       transform="rotate(135)" />
    <circle
       style="display:inline;fill:none;stroke:#000000;stroke-width:0.189;stroke-miterlimit:4;stroke-dasharray:none"
       id="path17688-4-08-5-5-7-5-6-1-6-5-5"
       cx="-134.5732"
       cy="-255.2563"
       r="1.6"
       transform="rotate(135)" />
  </g>
</svg>
